REM DIRINDEX 1\2,1\3
REM DIRNAME folder01,folder02,folder03
TITLE ""
FILE "DISC1Track11.mp3" MP3
  TRACK 01 AUDIO
    TITLE "0:"
    INDEX 01 00:00:00
  TRACK 02 AUDIO
    TITLE "3:cjc133_0462"
    INDEX 01 00:00:15
  TRACK 03 AUDIO
    TITLE "0:"
    INDEX 01 00:01:32
  TRACK 04 AUDIO
    TITLE "2:cjc133_0463"
    INDEX 01 00:02:02
  TRACK 05 AUDIO
    TITLE "2:cjc133_0464"
    INDEX 01 00:04:54
  TRACK 06 AUDIO
    TITLE "2:cjc133_0465"
    INDEX 01 00:07:07
  TRACK 07 AUDIO
    TITLE "0:"
    INDEX 01 00:08:40
  TRACK 08 AUDIO
    TITLE "2:cjc133_0466"
    INDEX 01 00:09:16
  TRACK 09 AUDIO
    TITLE "2:cjc133_0467"
    INDEX 01 00:10:66
  TRACK 10 AUDIO
    TITLE "2:cjc133_0468"
    INDEX 01 00:13:24
  TRACK 11 AUDIO
    TITLE "0:"
    INDEX 01 00:14:60
  TRACK 12 AUDIO
    TITLE "2:cjc133_0469"
    INDEX 01 00:15:38
  TRACK 13 AUDIO
    TITLE "2:cjc133_0470"
    INDEX 01 00:16:51
  TRACK 14 AUDIO
    TITLE "2:cjc133_0471"
    INDEX 01 00:19:30
  TRACK 15 AUDIO
    TITLE "0:"
    INDEX 01 00:21:11
  TRACK 16 AUDIO
    TITLE "2:cjc133_0472"
    INDEX 01 00:21:62
  TRACK 17 AUDIO
    TITLE "2:cjc133_0473"
    INDEX 01 00:23:69
  TRACK 18 AUDIO
    TITLE "2:cjc133_0474"
    INDEX 01 00:26:58
  TRACK 19 AUDIO
    TITLE "0:"
    INDEX 01 00:28:53
  TRACK 20 AUDIO
    TITLE "2:cjc133_0475"
    INDEX 01 00:29:31
  TRACK 21 AUDIO
    TITLE "2:cjc133_0476"
    INDEX 01 00:32:07
  TRACK 22 AUDIO
    TITLE "2:cjc133_0477"
    INDEX 01 00:35:00
  TRACK 23 AUDIO
    TITLE "0:"
    INDEX 01 00:36:68
  TRACK 24 AUDIO
    TITLE "2:cjc133_0478"
    INDEX 01 00:37:40
  TRACK 25 AUDIO
    TITLE "2:cjc133_0479"
    INDEX 01 00:40:26
  TRACK 26 AUDIO
    TITLE "2:cjc133_0480"
    INDEX 01 00:43:50
  TRACK 27 AUDIO
    TITLE "0:"
    INDEX 01 00:46:07
  TRACK 28 AUDIO
    TITLE "2:cjc133_0481"
    INDEX 01 00:46:58
  TRACK 29 AUDIO
    TITLE "2:cjc133_0482"
    INDEX 01 00:48:73
  TRACK 30 AUDIO
    TITLE "2:cjc133_0483"
    INDEX 01 00:51:15
  TRACK 31 AUDIO
    TITLE "0:"
    INDEX 01 00:52:37
  TRACK 32 AUDIO
    TITLE "2:cjc133_0484"
    INDEX 01 00:53:13
  TRACK 33 AUDIO
    TITLE "2:cjc133_0485"
    INDEX 01 00:54:72
  TRACK 34 AUDIO
    TITLE "2:cjc133_0486"
    INDEX 01 00:57:25
  TRACK 35 AUDIO
    TITLE "0:"
    INDEX 01 00:58:62
  TRACK 36 AUDIO
    TITLE "2:cjc133_0487"
    INDEX 01 00:59:41
  TRACK 37 AUDIO
    TITLE "2:cjc133_0488"
    INDEX 01 01:01:27
  TRACK 38 AUDIO
    TITLE "2:cjc133_0489"
    INDEX 01 01:03:65
  TRACK 39 AUDIO
    TITLE "0:"
    INDEX 01 01:05:30
  TRACK 40 AUDIO
    TITLE "2:cjc133_0490"
    INDEX 01 01:06:02
  TRACK 41 AUDIO
    TITLE "2:cjc133_0491"
    INDEX 01 01:08:56
  TRACK 42 AUDIO
    TITLE "2:cjc133_0492"
    INDEX 01 01:11:64
  TRACK 43 AUDIO
    TITLE "0:"
    INDEX 01 01:14:00
  TRACK 44 AUDIO
    TITLE "2:cjc133_0493"
    INDEX 01 01:14:55
  TRACK 45 AUDIO
    TITLE "2:cjc133_0494"
    INDEX 01 01:17:20
  TRACK 46 AUDIO
    TITLE "2:cjc133_0495"
    INDEX 01 01:19:60
  TRACK 47 AUDIO
    TITLE "0:"
    INDEX 01 01:21:45
  TRACK 48 AUDIO
    TITLE "2:cjc133_0496"
    INDEX 01 01:22:19
  TRACK 49 AUDIO
    TITLE "2:cjc133_0497"
    INDEX 01 01:24:20
  TRACK 50 AUDIO
    TITLE "2:cjc133_0498"
    INDEX 01 01:27:10
  TRACK 51 AUDIO
    TITLE "0:"
    INDEX 01 01:29:13
  TRACK 52 AUDIO
    TITLE "2:cjc133_0499"
    INDEX 01 01:29:62
  TRACK 53 AUDIO
    TITLE "2:cjc133_0500"
    INDEX 01 01:31:63
  TRACK 54 AUDIO
    TITLE "2:cjc133_0501"
    INDEX 01 01:34:61
  TRACK 55 AUDIO
    TITLE "0:"
    INDEX 01 01:36:64
  TRACK 56 AUDIO
    TITLE "2:cjc133_0502"
    INDEX 01 01:37:42
  TRACK 57 AUDIO
    TITLE "2:cjc133_0503"
    INDEX 01 01:39:57
  TRACK 58 AUDIO
    TITLE "2:cjc133_0504"
    INDEX 01 01:43:00
  TRACK 59 AUDIO
    TITLE "0:"
    INDEX 01 01:45:20
  TRACK 60 AUDIO
    TITLE "2:cjc133_0505"
    INDEX 01 01:46:00
  TRACK 61 AUDIO
    TITLE "2:cjc133_0506"
    INDEX 01 01:48:34
  TRACK 62 AUDIO
    TITLE "2:cjc133_0507"
    INDEX 01 01:51:64
  TRACK 63 AUDIO
    TITLE "0:"
    INDEX 01 01:54:25
